<?xml version="1.0" encoding="UTF-8" standalone="no"?>
<!-- Created with Inkscape (http://www.inkscape.org/) -->

<svg
   width="23.651056"
   height="26.125927"
   viewBox="0 0 23.651056 26.125927"
   version="1.1"
   id="SVGRoot"
   sodipodi:docname="/tmp/ink_ext_XXXXXX.svg07IM42"
   xml:space="preserve"
   xmlns:inkscape="http://www.inkscape.org/namespaces/inkscape"
   xmlns:sodipodi="http://sodipodi.sourceforge.net/DTD/sodipodi-0.dtd"
   xmlns="http://www.w3.org/2000/svg"
   xmlns:svg="http://www.w3.org/2000/svg"><sodipodi:namedview
     id="namedview1231"
     pagecolor="#ffffff"
     bordercolor="#000000"
     borderopacity="0.25"
     inkscape:showpageshadow="2"
     inkscape:pageopacity="0.0"
     inkscape:pagecheckerboard="0"
     inkscape:deskcolor="#d1d1d1"
     inkscape:document-units="px"
     showgrid="true"
     inkscape:zoom="0.25"
     inkscape:cx="45.0"
     inkscape:cy="45.0"
     inkscape:window-width="1443"
     inkscape:window-height="150"
     inkscape:window-x="26"
     inkscape:window-y="23"
     inkscape:window-maximized="0"
     inkscape:current-layer="layer1"><inkscape:grid
       type="xygrid"
       id="grid1354" /></sodipodi:namedview><defs
     id="defs1226"><clipPath
       clipPathUnits="userSpaceOnUse"
       id="clipPath2100"><path
         id="path2102"
         style="fill:#ff0000;fill-opacity:1;fill-rule:nonzero;stroke:none;stroke-width:1.4753"
         d="M -8.6949754e-4,8.4228165e-4 V 24.000342 H 23.998629 V 8.4228165e-4 Z M 4.2636586,13.906664 c 0.1468363,0.0015 0.3216574,0.09478 0.4725566,0.311195 0.1602866,0.229878 0.2566765,0.493394 0.3659429,0.749174 0.1088621,0.27268 0.207285,0.54734 0.2967883,0.826972 0.084889,0.209956 0.1612027,0.425433 0.2564479,0.631036 0.069619,0.164848 0.1514037,0.323739 0.2362775,0.481201 0.098638,0.188694 0.1743343,0.388326 0.2478041,0.587812 0.062892,0.183192 0.1354322,0.364379 0.2132261,0.541711 0.059882,0.134577 0.1227889,0.265638 0.1757683,0.403401 0.047313,0.154713 0.095216,0.308713 0.149834,0.46103 0.2005931,0.559477 -0.1911542,0.841191 -0.4984894,0.605102 0.00162,0.02875 1.623e-4,0.0578 0.00295,0.08644 0.01431,0.13735 0.024829,0.274234 0.020167,0.412045 0.016391,0.07198 0.03346,0.144683 0.051871,0.216108 0.046575,0.168589 0.079297,0.340969 0.1238954,0.510016 0.1370108,0.51935 -0.1890341,0.769499 -0.4639114,0.619508 -3.171e-4,0.0041 5.238e-4,0.0072 0,0.01151 -0.012983,0.106118 -0.025523,0.212488 -0.04898,0.316958 -0.010327,0.04159 -0.02207,0.08307 -0.034581,0.123896 0.026659,0.113981 0.014753,0.259302 -0.054748,0.429333 C 5.7003097,22.417571 5.6119527,22.598064 5.5171501,22.7757 5.4096453,22.974702 5.2891755,23.166343 5.159851,23.351987 4.7211377,23.981735 4.092601,23.541703 4.5259353,22.908246 4.5909517,22.813193 4.6479571,22.713 4.7074661,22.614339 v -0.0029 c 0.00738,-0.04126 0.017497,-0.0849 0.031689,-0.129664 0.050027,-0.157762 0.1118717,-0.311314 0.1757683,-0.46391 -7.096e-4,-0.06935 0.00797,-0.146733 0.028812,-0.230515 0.046826,-0.188103 0.1029315,-0.3742 0.1613606,-0.559 0.039686,-0.149613 0.091409,-0.295862 0.126787,-0.446623 0.036971,-0.147742 0.1049526,-0.285286 0.1527167,-0.429334 0.027544,-0.08867 0.033548,-0.181522 0.040335,-0.273737 -0.030375,-0.138842 -0.059192,-0.278393 -0.0865,-0.41781 -0.054187,-0.247304 -0.10923,-0.4924 -0.1728846,-0.737598 C 5.0694641,18.531945 4.9664854,18.140304 4.888932,17.74474 4.8723202,17.654481 4.8583196,17.564194 4.842829,17.473884 4.725779,17.345312 4.6183494,17.209405 4.5172252,17.067602 4.4067402,16.911618 4.3113653,16.744241 4.2233196,16.574875 c -0.060443,-0.126241 -0.031158,-0.05953 -0.086438,-0.190174 -0.1775696,-0.419685 0.0062,-0.698727 0.2449213,-0.705953 0.013868,-4.21e-4 0.029034,-0.0015 0.043226,0 -0.034374,-0.07402 -0.069708,-0.147592 -0.1037281,-0.22187 C 4.231087,15.25987 4.2223533,15.092735 4.2636763,14.969914 4.214962,14.857032 4.1608482,14.746308 4.0907908,14.644312 3.8056204,14.229145 3.9833597,13.903813 4.2636763,13.906664 Z" /></clipPath><clipPath
       clipPathUnits="userSpaceOnUse"
       id="clipPath2110"><path
         id="path2112"
         style="fill:#ff0000;fill-opacity:1;fill-rule:nonzero;stroke:none;stroke-width:1.4753"
         d="M 1.9988485,1.4991902 V 23.000483 h 2.4693924 c 0.016568,-0.03074 0.03585,-0.06037 0.057625,-0.09221 0.065016,-0.09505 0.1220218,-0.195247 0.1815308,-0.293907 v -0.0029 c 0.00738,-0.04126 0.017497,-0.0849 0.031689,-0.129664 0.050027,-0.157762 0.1118717,-0.311314 0.1757683,-0.46391 -7.097e-4,-0.06935 0.00797,-0.146733 0.028812,-0.230515 0.046826,-0.188103 0.1029314,-0.3742 0.1613606,-0.559 0.039685,-0.149613 0.091409,-0.295862 0.1267869,-0.446623 0.036971,-0.147742 0.1049526,-0.285286 0.1527168,-0.429334 0.027013,-0.08697 0.036469,-0.177517 0.043226,-0.267975 -0.030801,-0.14092 -0.061601,-0.282104 -0.089322,-0.423572 C 5.284248,19.413565 5.2292047,19.168446 5.1655501,18.923248 5.0694641,18.531945 4.9664854,18.140304 4.888932,17.74474 4.8723202,17.654481 4.8583196,17.564194 4.842829,17.473884 4.725779,17.345312 4.6183494,17.209405 4.5172252,17.067602 4.4067402,16.911618 4.3113653,16.744239 4.2233196,16.574875 c -0.060443,-0.126241 -0.031158,-0.05953 -0.086438,-0.190174 -0.1775696,-0.419685 0.0062,-0.698727 0.2449213,-0.705953 0.013868,-4.21e-4 0.029034,-0.0015 0.043226,0 -0.034374,-0.07402 -0.069708,-0.147592 -0.1037281,-0.22187 C 4.231087,15.25987 4.2223533,15.092735 4.2636763,14.969914 4.214962,14.857032 4.1608482,14.746308 4.0907908,14.644312 3.8056204,14.229145 3.9833597,13.903813 4.2636763,13.906664 c 0.1468363,0.0015 0.3216574,0.09478 0.4725567,0.311195 0.1602865,0.229878 0.2566764,0.493394 0.3659428,0.749174 0.1088621,0.27268 0.2072851,0.54734 0.2967883,0.826972 0.084889,0.209956 0.1612027,0.425433 0.2564479,0.631036 0.069619,0.164848 0.1514037,0.323739 0.2362775,0.481201 0.098638,0.188694 0.1743343,0.388326 0.2478041,0.587812 0.062892,0.183192 0.1354322,0.364379 0.2132261,0.541711 0.059882,0.134577 0.1227889,0.265638 0.1757683,0.403401 0.047313,0.154713 0.095216,0.308713 0.149834,0.46103 0.2005931,0.559477 -0.1911541,0.841191 -0.4984894,0.605102 0.00162,0.02875 1.623e-4,0.0578 0.00295,0.08644 0.01431,0.137335 0.024829,0.274234 0.020167,0.412045 0.016391,0.07198 0.03346,0.144683 0.051871,0.216108 0.046575,0.168591 0.079297,0.340967 0.1238954,0.510016 0.1370108,0.519348 -0.1890341,0.769499 -0.4639113,0.619508 -3.172e-4,0.0041 5.237e-4,0.0072 0,0.01151 -0.012983,0.106118 -0.025523,0.212488 -0.04898,0.316958 -0.010327,0.04159 -0.02207,0.08307 -0.034581,0.123896 0.026659,0.113981 0.014753,0.259302 -0.054748,0.429333 -0.076169,0.186464 -0.1645265,0.366957 -0.2593291,0.544593 -0.041131,0.07614 -0.084962,0.150692 -0.1296638,0.224752 H 21.998912 V 1.4991902 Z" /></clipPath><clipPath
       clipPathUnits="userSpaceOnUse"
       id="clipPath2246"><path
         id="path2248"
         style="fill:#ff0000;fill-opacity:1;fill-rule:nonzero;stroke:none;stroke-width:1.86779"
         d="M -3.9242989,-1.043311 V 29.341166 H 26.46018 V -1.043311 Z m 4.43600897,20.56032 c 0.13875838,8.4e-5 0.30468756,0.07729 0.47789366,0.226181 0.054166,-0.05932 0.12120117,-0.110443 0.20428997,-0.149573 0.07473,-0.03511 0.1601072,-0.03693 0.2407698,-0.05473 0.059302,-0.01307 0.1103305,-0.02148 0.1495729,-0.02189 0.1931018,-0.0021 0.1384969,0.14877 0.036478,0.328324 0.1393,0.07891 0.2730378,0.233656 0.3611565,0.48154 0.042847,0.120529 0.02288,0.0579 0.072956,0.189699 0.031808,0.08211 0.061208,0.165468 0.091204,0.248065 0.1424006,0.142531 0.2908883,0.277825 0.4377641,0.415877 0.2003377,0.18325 0.4038469,0.364937 0.5946308,0.558149 0.4546826,0.460406 0.2901785,0.910204 -0.069314,0.959432 0.070752,0.30033 0.1123664,0.606054 0.1495729,0.91201 0.030538,0.250975 -0.015503,0.444316 -0.098489,0.576388 0.00878,0.017 0.01681,0.03414 0.025533,0.05107 0.04931,0.05947 0.089094,0.135229 0.1167371,0.226179 0.00171,0.0034 0.0016,0.0075 0.00374,0.01102 0.055884,0.110704 0.1122543,0.221246 0.1678025,0.331972 0.142494,0.303963 0.3079413,0.607485 0.3137314,0.952136 0.00121,0.0768 -0.00859,0.153234 -0.014569,0.229826 -0.072937,0.51149 -0.415741,0.873396 -0.7770321,1.211149 -0.3595614,0.294723 -0.705983,0.601835 -1.0615772,0.901064 -0.2312927,0.198836 -0.45763,0.402792 -0.7186616,0.561797 -0.46458754,0.228026 -0.91632089,0.01625 -1.3096446,-0.248067 -0.21088136,-0.179047 -0.48333454,-0.398201 -0.53991001,-0.689477 -0.0188647,-0.09776 -0.0130746,-0.199697 -0.0183044,-0.299139 0.0296606,-0.08119 0.0452566,-0.171202 0.0912044,-0.244419 0.094417,-0.150432 0.2261786,-0.244321 0.37574591,-0.310082 -0.0100861,-0.230835 0.017744,-0.461011 0.0839013,-0.689479 0.0020546,-0.04655 0.0063505,-0.09445 0.01830438,-0.14227 0.03294788,-0.133304 0.13388344,-0.241151 0.20064212,-0.361155 0.0431834,-0.02699 0.0819775,-0.05842 0.12404017,-0.08754 0.00523,-0.0047 0.0128878,-0.0062 0.0183044,-0.01102 0.0352266,-0.02994 0.0710509,-0.06033 0.10943402,-0.0839 -0.0205457,-0.116924 -0.019313,-0.235903 0,-0.353861 -0.0700609,-0.137208 -0.0955376,-0.330114 -0.0474233,-0.572741 0.0274752,-0.138851 0.0115803,-0.06266 0.036478,-0.229826 0.027606,-0.154672 0.0610021,-0.307345 0.0984888,-0.459653 -0.0121407,-0.0351 -0.0262612,-0.06976 -0.0328358,-0.105792 -0.0426604,-0.234438 -0.0385699,-0.684284 0.17146345,-0.846342 0.0572105,-0.04414 0.10709928,-0.08086 0.15321511,-0.109452 0.0134481,-0.03947 0.028708,-0.07707 0.0437811,-0.116737 0.008779,-0.05368 0.033695,-0.101758 0.0656716,-0.149573 0.0301649,-0.09617 0.0611702,-0.192196 0.0912044,-0.288195 C 1.0009842,22.060135 1.0505368,21.856301 1.0955879,21.651098 1.0231736,21.423744 0.94702364,21.197741 0.84752254,20.97986 0.76265,20.792451 0.55953492,20.68292 0.42070182,20.538448 c -0.48391916,-0.503565 -0.3061874,-1.02168 0.0912044,-1.021452 z" /></clipPath></defs><g
     inkscape:groupmode="layer"
     id="layer3"
     inkscape:label="Layer 1"
     transform="matrix(0.53539107,0,0,0.53539107,9.6243106,0.55857941)"
     clip-path="url(#clipPath2246)"><g
       id="g1537"
       transform="matrix(1.2660463,0,0,1.2660463,-4.1843078,-1.1110927)"><path
         d="M 0,0 H 24 V 24 H 0 Z"
         fill="none"
         id="path1525"
         clip-path="url(#clipPath2100)" /><path
         d="m 16.49,15.5 v -1.75 l -2.49,2.5 2.49,2.5 V 17 H 22 v -1.5 z m 3.02,4.25 H 14 v 1.5 h 5.51 V 23 L 22,20.5 19.51,18 Z M 9.5,5.5 c 1.1,0 2,-0.9 2,-2 0,-1.1 -0.9,-2 -2,-2 -1.1,0 -2,0.9 -2,2 0,1.1 0.9,2 2,2 z M 5.75,8.9 3,23 H 5.1 L 6.85,15 9,17 v 6 h 2 v -7.55 l -2.05,-2.05 0.6,-3 C 10.85,12 12.8,13 15,13 V 11 C 13.15,11 11.55,10 10.65,8.55 L 9.7,6.95 C 9.35,6.35 8.7,6 8,6 7.75,6 7.5,6.05 7.25,6.15 L 2,8.3 V 13 H 4 V 9.65 L 5.75,8.9"
         id="path1527"
         clip-path="url(#clipPath2110)" /></g></g><g
     inkscape:groupmode="layer"
     id="layer4"
     inkscape:label="Layer 2"
     transform="translate(-1.2638334,0.32617188)"><g
       id="g2308"
       transform="matrix(0.74930157,0,0,0.74930157,1.3113932,7.8165176)"><g
         id="g2286"><rect
           fill="none"
           height="24"
           width="24"
           id="rect2284"
           x="0"
           y="0" /></g><g
         id="g2294"
         transform="translate(-5.0634721,-1.3512379)"><g
           id="g2292"><g
             id="g2290"><path
               d="M 12,2 C 8.14,2 5,5.14 5,9 c 0,5.25 7,13 7,13 0,0 7,-7.75 7,-13 0,-3.86 -3.14,-7 -7,-7 z m 0,2 c 1.1,0 2,0.9 2,2 0,1.11 -0.9,2 -2,2 -1.1,0 -2,-0.89 -2,-2 0,-1.1 0.9,-2 2,-2 z m 0,10 C 10.33,14 8.86,13.15 8,11.85 8.02,10.53 10.67,9.8 12,9.8 c 1.33,0 3.98,0.73 4,2.05 -0.86,1.3 -2.33,2.15 -4,2.15 z"
               id="path2288" /></g></g></g></g></g></svg>
